<?xml version="1.0" encoding="UTF-8" standalone="no"?>
<!-- Created with Inkscape (http://www.inkscape.org/) -->

<svg
   version="1.1"
   id="svg1"
   width="933"
   height="305"
   viewBox="0 0 933 305"
   sodipodi:docname="logo_asf_test.svg"
   inkscape:version="1.3.2 (091e20e, 2023-11-25, custom)"
   xmlns:inkscape="http://www.inkscape.org/namespaces/inkscape"
   xmlns:sodipodi="http://sodipodi.sourceforge.net/DTD/sodipodi-0.dtd"
   xmlns="http://www.w3.org/2000/svg"
   xmlns:svg="http://www.w3.org/2000/svg">
  <defs
     id="defs1" />
  <sodipodi:namedview
     id="namedview1"
     pagecolor="#ffffff"
     bordercolor="#000000"
     borderopacity="0.25"
     inkscape:showpageshadow="2"
     inkscape:pageopacity="0.0"
     inkscape:pagecheckerboard="0"
     inkscape:deskcolor="#d1d1d1"
     inkscape:zoom="1.43194"
     inkscape:cx="455.67552"
     inkscape:cy="204.96669"
     inkscape:window-width="1920"
     inkscape:window-height="1051"
     inkscape:window-x="-9"
     inkscape:window-y="-9"
     inkscape:window-maximized="1"
     inkscape:current-layer="g2" />
  <g
     inkscape:groupmode="layer"
     inkscape:label="Image"
     id="g1">
    <g
       inkscape:groupmode="layer"
       id="layer1"
       inkscape:label="bg" />
    <g
       id="g2"
       transform="translate(-34.917665,18.157185)">
      <path
         style="fill:#5c7b94;fill-opacity:1;stroke:#000000;stroke-opacity:1;stroke-width:2;stroke-dasharray:none"
         d="M 381.25928,198.88527 C 367.39134,195.87196 350.348,183.11456 343.76555,170.82021 l -2.71798,-5.0765 9.44781,-6.62335 9.44782,-6.62335 3.55289,5.35265 c 8.00763,12.06402 19.06457,18.93666 30.48744,18.95001 5.01036,0.006 7.47398,-0.53998 10.74991,-2.38177 5.67921,-3.19295 8.75601,-9.31346 7.88316,-15.68156 -1.2284,-8.96219 -5.18948,-12.02762 -27.60306,-21.36168 -15.2335,-6.34394 -20.69754,-9.65379 -26.45204,-16.02333 -6.355,-7.03422 -8.9113,-13.90586 -8.9113,-23.954624 0,-7.088642 0.44653,-9.567514 2.55183,-14.166087 4.98006,-10.877886 14.48314,-18.137545 27.87457,-21.29413 18.35776,-4.327231 37.09611,0.487169 49.70755,12.771237 3.82275,3.723528 10.19938,12.430601 10.19938,13.926924 0,0.309568 -4.6125,3.105146 -10.25,6.212395 l -10.25,5.649545 -1.5,-2.290963 c -6.22086,-9.501175 -14.92864,-14.808921 -24.29522,-14.808921 -13.24846,0 -20.23983,8.939721 -14.8504,18.988904 2.67464,4.98716 9.38874,9.16665 23.36624,14.54538 17.84485,6.86693 25.12484,11.55095 31.89829,20.52367 7.12022,9.4321 8.76045,24.513 4.01788,36.94205 -7.21766,18.91564 -32.46573,29.78932 -56.86104,24.48856 z M 219.48101,151.98312 c 11.72217,-24.42748 26.83066,-55.942498 33.57441,-70.033375 6.74375,-14.090878 12.60637,-25.267263 13.02803,-24.836409 0.42167,0.430853 15.64278,31.83337 33.8247,69.783374 l 33.05804,69 -14.66361,0.27772 c -8.06499,0.15275 -15.00785,-0.0722 -15.42858,-0.5 -0.42074,-0.42775 -3.70939,-7.07772 -7.30812,-14.77772 l -6.54314,-14 -23.40192,-0.26782 -23.40192,-0.26782 -6.85966,15.01782 -6.85967,15.01782 h -15.1658 -15.16581 z m 62.50252,-7.70417 c 0,-1.32423 -14.88869,-36.02406 -15.94927,-37.17166 -0.62923,-0.68085 -17.06546,35.49729 -17.05469,37.53942 0.002,0.4125 7.42896,0.75 16.50396,0.75 11.49226,0 16.5,-0.33924 16.5,-1.11776 z m 182,-14.38224 V 63.396707 h 38.5 38.5 v 11.5 11.499999 h -25.5 -25.5 v 15.500004 15.5 h 24.5 24.5 v 11 11 h -24.5 -24.5 v 28.5 28.5 h -13 -13 z"
         id="path4" />
      <path
         style="fill:#51608a;fill-opacity:1;stroke:#000000;stroke-opacity:1;stroke-width:2;stroke-dasharray:none"
         d="m 169.98756,228.30556 c -0.76313,-1.81816 -10.00464,-22.72415 -20.53671,-46.45776 -10.89363,-24.54839 -19.14921,-44.4336 -19.14921,-46.1247 0,-2.57893 38.88194,-92.23182 41.01093,-94.561858 0.77776,-0.851209 16.92779,1.978837 18.16147,3.182521 0.36982,0.360829 -6.51939,20.681056 -15.30936,45.156056 -8.78997,24.475001 -15.98706,45.400001 -15.99353,46.500001 -0.006,1.1 6.93711,21.35 15.43019,45 8.49308,23.65 15.72744,43.92435 16.07635,45.05412 0.5821,1.88481 -0.005,2.15774 -7.12083,3.31122 -4.26537,0.6914 -8.5262,1.47963 -9.46851,1.75161 -1.22095,0.35242 -2.11201,-0.45543 -3.10079,-2.81121 z M 556.30164,133.99982 V 38.499815 h 12 12 l -10e-4,43.750004 c -5.8e-4,24.062501 -0.29915,67.037501 -0.66349,95.500001 l -0.66249,51.75 h -11.33651 -11.33651 z m 280.25474,94.09582 c -3.43489,-0.68915 -6.49048,-1.49823 -6.79021,-1.79796 -0.29972,-0.29972 6.67314,-20.76074 15.49526,-45.46894 8.82211,-24.70819 16.04021,-45.42656 16.04021,-46.04082 0,-0.61426 -7.2,-21.26092 -16,-45.881491 -8.8,-24.62056 -16,-45.078271 -16,-45.461577 0,-0.945082 17.90775,-4.370621 18.70108,-3.577293 0.34634,0.346345 9.55529,20.71082 20.46432,45.25439 16.6555,37.472221 19.8346,45.379571 19.8346,49.334561 0,3.95311 -3.20223,11.92701 -19.92952,49.6266 -22.59557,50.92541 -19.3992,46.50368 -31.81574,44.01253 z m -197.4731,-29.14876 c -13.16501,-3.19164 -24.9493,-11.92419 -30.27568,-22.4353 -5.1007,-10.06575 -5.46975,-14.48755 -5.4886,-65.76176 l -0.0174,-47.250001 h 13.5 13.5 l 0.01,47.750001 0.01,47.75 2.35788,5 c 4.27846,9.07362 10.20542,12.5 21.62212,12.5 10.89244,0 16.92699,-3.25341 21.33061,-11.5 2.02262,-3.78773 2.17107,-5.8574 2.7973,-39 0.36374,-19.25 0.70875,-41.187501 0.76671,-48.750001 l 0.10538,-13.75 h 13 13 l -0.0174,47.250001 c -0.0188,51.27421 -0.3879,55.69601 -5.4886,65.76176 -5.42339,10.70255 -17.1481,19.27953 -30.73377,22.48267 -7.73734,1.82426 -22.35368,1.80116 -29.97863,-0.0474 z m 95.21836,-69.03819 V 63.317549 l 28.75,0.42577 c 23.9899,0.35528 29.66063,0.71977 34.25,2.20144 17.6379,5.69439 25.36976,14.99876 25.39104,30.55506 0.0162,11.830301 -5.44789,20.908071 -15.76002,26.182981 -4.35623,2.22832 -4.08962,2.76586 2.59088,5.22371 6.16689,2.2689 14.1994,9.57154 17.58341,15.98571 2.43087,4.60754 2.69469,6.13561 2.69469,15.6076 0,9.4576 -0.27597,11.06196 -2.77978,16.16054 -5.0547,10.29301 -14.49759,16.55391 -29.2139,19.3696 -5.61617,1.07455 -15.18901,1.46986 -35.59429,1.46986 h -27.91203 z m 54.5,44.48735 c 19.11187,-5.22052 19.11187,-31.57192 0,-36.79244 -2.2,-0.60095 -9.5125,-1.09514 -16.25,-1.0982 l -12.25,-0.006 v 19.5 19.5 l 12.25,-0.006 c 6.7375,-0.003 14.05,-0.49725 16.25,-1.0982 z m -1.71077,-59.7677 c 5.86182,-3.01916 8.20235,-7.15326 8.20703,-14.49617 0.003,-5.455461 -0.26127,-6.132661 -3.76881,-9.640191 -4.7444,-4.7444 -9.1756,-5.97955 -21.47745,-5.98659 l -9.75,-0.006 v 15.833331 c 0,8.70834 0.3375,16.18129 0.75,16.60654 0.4125,0.42525 5.475,0.57624 11.25,0.33551 8.27498,-0.34493 11.40892,-0.90582 14.78923,-2.64687 z"
         id="path2" />
    </g>
  </g>
</svg>
